<svg width="124" height="744" viewBox="0 0 124 744" fill="none" xmlns="http://www.w3.org/2000/svg" aria-hidden="true" role="img" focusable="false">

<g id="qld__icon__home" viewBox="0 0 124 124">
<path d="M21.6774 108.137H45.6475V74.0238C45.6475 72.5933 46.1313 71.3936 47.099 70.4249C48.0678 69.4572 49.2674 68.9734 50.6979 68.9734H73.3021C74.7326 68.9734 75.9322 69.4572 76.901 70.4249C77.8687 71.3936 78.3525 72.5933 78.3525 74.0238V108.137H102.323V48.6329C102.323 48.3013 102.25 48.001 102.106 47.7319C101.961 47.4628 101.764 47.2249 101.515 47.0183L63.1803 18.1963C62.8487 17.9348 62.4553 17.804 62 17.804C61.5447 17.804 61.1513 17.9348 60.8197 18.1963L22.4847 47.0183C22.236 47.2249 22.0391 47.4628 21.8938 47.7319C21.7495 48.001 21.6774 48.3013 21.6774 48.6329V108.137ZM13.5625 108.137V48.6458C13.5625 47.028 13.9134 45.5103 14.6152 44.0927C15.3181 42.674 16.3197 41.5007 17.6199 40.5729L55.955 11.6767C57.6966 10.3247 59.7024 9.64874 61.9725 9.64874C64.2427 9.64874 66.2668 10.3247 68.045 11.6767L106.38 40.5729C107.68 41.5007 108.682 42.674 109.385 44.0927C110.087 45.5103 110.438 47.028 110.438 48.6458V108.137C110.438 110.345 109.637 112.25 108.037 113.851C106.436 115.451 104.531 116.252 102.323 116.252H75.2896C73.858 116.252 72.6584 115.768 71.6907 114.8C70.7231 113.831 70.2392 112.632 70.2392 111.201V77.0867H53.7608V111.201C53.7608 112.632 53.2769 113.831 52.3093 114.8C51.3416 115.768 50.142 116.252 48.7104 116.252H21.6774C19.4686 116.252 17.564 115.451 15.9634 113.851C14.3628 112.25 13.5625 110.345 13.5625 108.137Z" fill="currentColor"></path>
</g>
<g id="qld__icon__arrow_up" viewBox="0 0 124 124">
<path d="M58.125 162.094L31.4172 188.802C30.6491 189.57 29.7501 189.949 28.7202 189.94C27.6904 189.929 26.7746 189.524 25.9729 188.723C25.2246 187.921 24.8371 187.014 24.8104 186C24.7837 184.986 25.1712 184.079 25.9729 183.277L58.7308 150.519C59.2148 150.035 59.725 149.694 60.2615 149.496C60.7979 149.297 61.3775 149.198 62 149.198C62.6226 149.198 63.2022 149.297 63.7386 149.496C64.2751 149.694 64.7853 150.035 65.2693 150.519L98.0272 183.277C98.7428 183.993 99.1088 184.879 99.1251 185.935C99.1415 186.992 98.7755 187.921 98.0272 188.723C97.2255 189.524 96.305 189.924 95.2656 189.924C94.2254 189.924 93.3044 189.524 92.5028 188.723L65.875 162.094V220.875C65.875 221.975 65.5039 222.895 64.7616 223.637C64.0202 224.379 63.0997 224.75 62 224.75C60.9004 224.75 59.9799 224.379 59.2385 223.637C58.4962 222.895 58.125 221.975 58.125 220.875V162.094Z" fill="currentColor"></path>
</g>
<g id="qld__icon__arrow_down" viewBox="0 0 124 124">
<path d="M58.125 333.906V275.125C58.125 274.025 58.4961 273.105 59.2384 272.363C59.9798 271.621 60.9004 271.25 62 271.25C63.0996 271.25 64.0202 271.621 64.7616 272.363C65.5039 273.105 65.875 274.025 65.875 275.125V333.906L92.5828 307.198C93.3509 306.43 94.2499 306.051 95.2798 306.06C96.3097 306.071 97.2255 306.476 98.0272 307.277C98.7755 308.079 99.163 308.986 99.1897 310C99.2164 311.014 98.8289 311.921 98.0272 312.723L65.2692 345.481C64.7853 345.965 64.2751 346.306 63.7386 346.504C63.2021 346.703 62.6226 346.802 62 346.802C61.3774 346.802 60.7979 346.703 60.2614 346.504C59.7249 346.306 59.2147 345.965 58.7308 345.481L25.9728 312.723C25.2572 312.007 24.8913 311.121 24.8749 310.065C24.8586 309.008 25.2245 308.079 25.9728 307.277C26.7745 306.476 27.6951 306.076 28.7344 306.076C29.7746 306.076 30.6956 306.476 31.4973 307.277L58.125 333.906Z" fill="currentColor"></path>
</g>
<g id="qld__icon__arrow_left" viewBox="0 0 124 124">
<path d="M38.0939 437.875L64.8017 464.583C65.5698 465.351 65.9491 466.25 65.9396 467.28C65.9293 468.31 65.5237 469.225 64.7229 470.027C63.9212 470.775 63.0136 471.163 62 471.19C60.9865 471.216 60.0789 470.829 59.2772 470.027L26.5193 437.269C26.0353 436.785 25.6943 436.275 25.4963 435.739C25.2973 435.202 25.1979 434.623 25.1979 434C25.1979 433.377 25.2973 432.798 25.4963 432.261C25.6943 431.725 26.0353 431.215 26.5193 430.731L59.2772 397.973C59.9928 397.257 60.8789 396.891 61.9355 396.875C62.992 396.859 63.9212 397.225 64.7229 397.973C65.5237 398.775 65.9241 399.695 65.9241 400.734C65.9241 401.775 65.5237 402.696 64.7229 403.497L38.0939 430.125H96.875C97.9747 430.125 98.8952 430.496 99.6366 431.238C100.379 431.98 100.75 432.9 100.75 434C100.75 435.1 100.379 436.02 99.6366 436.762C98.8952 437.504 97.9747 437.875 96.875 437.875H38.0939Z" fill="currentColor"></path>
</g>
<g id="qld__icon__arrow_right" viewBox="0 0 124 124">
<path d="M85.9062 561.875H27.125C26.0254 561.875 25.1048 561.504 24.3634 560.762C23.6211 560.02 23.25 559.1 23.25 558C23.25 556.9 23.6211 555.98 24.3634 555.238C25.1048 554.496 26.0254 554.125 27.125 554.125H85.9062L59.1984 527.417C58.4303 526.649 58.0509 525.75 58.0604 524.72C58.0708 523.69 58.4763 522.775 59.2772 521.973C60.0789 521.225 60.9865 520.837 62 520.81C63.0135 520.784 63.9211 521.171 64.7228 521.973L97.4808 554.731C97.9647 555.215 98.3057 555.725 98.5038 556.261C98.7027 556.798 98.8022 557.377 98.8022 558C98.8022 558.623 98.7027 559.202 98.5038 559.739C98.3057 560.275 97.9647 560.785 97.4808 561.269L64.7228 594.027C64.0072 594.743 63.1212 595.109 62.0646 595.125C61.008 595.141 60.0789 594.775 59.2772 594.027C58.4763 593.225 58.0759 592.305 58.0759 591.266C58.0759 590.225 58.4763 589.304 59.2772 588.503L85.9062 561.875Z" fill="currentColor"></path>
</g>
<g id="qld__icon__chevron_down" viewBox="0 0 124 124">
<path d="M61.7216 698.727L101.585 658.865C102.346 658.102 103.262 657.727 104.331 657.737C105.401 657.746 106.317 658.132 107.078 658.894C107.841 659.655 108.222 660.571 108.222 661.642C108.222 662.711 107.841 663.627 107.078 664.389L67.5935 703.844C66.7591 704.679 65.8286 705.288 64.8022 705.672C63.7749 706.056 62.748 706.248 61.7216 706.248C60.6951 706.248 59.6682 706.056 58.6409 705.672C57.6145 705.288 56.6841 704.679 55.8496 703.844L16.3647 664.358C15.6026 663.597 15.2267 662.686 15.2371 661.626C15.2465 660.566 15.6323 659.655 16.3944 658.894C17.1556 658.132 18.0714 657.751 19.1418 657.751C20.2113 657.751 21.127 658.132 21.8891 658.894L61.7216 698.727Z" fill="currentColor"></path>
</g>
</svg>